<svg xmlns="http://www.w3.org/2000/svg" width="49" height="49" viewBox="0 0 49 49">
  <g id="Group_51" data-name="Group 51" transform="translate(0.039 0.039)">
    <g id="Group_50" data-name="Group 50" transform="translate(0 0)">
      <g id="Ellipse_23" data-name="Ellipse 23" transform="translate(-0.039 -0.039)" fill="#ff5a4e" stroke="#fff" stroke-width="5">
        <circle cx="24.5" cy="24.5" r="24.5" stroke="none"/>
        <circle cx="24.5" cy="24.5" r="22" fill="none"/>
      </g>
    </g>
    <path id="thumbs-down" d="M0,2.008v8.606a.861.861,0,0,0,.861.861H3.729a.861.861,0,0,0,.861-.861V2.008a.861.861,0,0,0-.861-.861H.861A.861.861,0,0,0,0,2.008ZM1.434,9.18a.861.861,0,1,1,.861.861A.861.861,0,0,1,1.434,9.18Zm9.754,9.18c-.724,0-1.057-1.409-1.217-2.073a4.343,4.343,0,0,0-.911-2.112c-1.164-1.166-1.775-2.652-3.2-4.056a.43.43,0,0,1-.128-.306V2.148a.43.43,0,0,1,.423-.43,5.643,5.643,0,0,0,1.888-.58A10.294,10.294,0,0,1,12.336,0h.1c1.534,0,3.348.015,4.08,1.066a1.9,1.9,0,0,1,.22,1.6,2.836,2.836,0,0,1,.587,2.681,3,3,0,0,1,.334,2.85l0,0a2.6,2.6,0,0,1,.7,1.764,2.143,2.143,0,0,1-2.136,2.083H12.577c.262,1.016,1.193,1.869,1.193,3.391C13.77,18.074,12.049,18.36,11.188,18.36Z" transform="translate(15.3 16.83)" fill="#fff"/>
  </g>
</svg>
