<svg xmlns="http://www.w3.org/2000/svg" xmlns:xlink="http://www.w3.org/1999/xlink" width="68" height="68" viewBox="0 0 68 68">
  <defs>
    <filter id="ui" x="0" y="0" width="68" height="68" filterUnits="userSpaceOnUse">
      <feOffset input="SourceAlpha"/>
      <feGaussianBlur stdDeviation="3" result="blur"/>
      <feFlood flood-opacity="0.161"/>
      <feComposite operator="in" in2="blur"/>
      <feComposite in="SourceGraphic"/>
    </filter>
  </defs>
  <g transform="matrix(1, 0, 0, 1, 0, 0)" filter="url(#ui)">
    <path id="ui-2" data-name="ui" d="M45.4,18.828H44.335a20.191,20.191,0,0,0-1.3-3.134l.752-.752a4.6,4.6,0,0,0,0-6.51L41.569,6.214a4.6,4.6,0,0,0-6.51,0l-.752.752a20.2,20.2,0,0,0-3.134-1.3V4.6a4.608,4.608,0,0,0-4.6-4.6H23.431a4.608,4.608,0,0,0-4.6,4.6V5.664a20.185,20.185,0,0,0-3.134,1.3l-.752-.752a4.6,4.6,0,0,0-6.51,0L6.214,8.431a4.6,4.6,0,0,0,0,6.51l.752.752a20.187,20.187,0,0,0-1.3,3.134H4.6a4.608,4.608,0,0,0-4.6,4.6v3.138a4.608,4.608,0,0,0,4.6,4.6H5.664a20.191,20.191,0,0,0,1.3,3.134l-.752.752a4.6,4.6,0,0,0,0,6.51l2.218,2.218a4.6,4.6,0,0,0,6.51,0l.752-.752a20.2,20.2,0,0,0,3.134,1.3V45.4a4.608,4.608,0,0,0,4.6,4.6h3.138a4.608,4.608,0,0,0,4.6-4.6V44.335a20.185,20.185,0,0,0,3.134-1.3l.752.752a4.6,4.6,0,0,0,6.51,0l2.218-2.218a4.6,4.6,0,0,0,0-6.51l-.752-.752a20.187,20.187,0,0,0,1.3-3.134H45.4a4.608,4.608,0,0,0,4.6-4.6V23.431a4.608,4.608,0,0,0-4.6-4.6ZM25,35.879A10.879,10.879,0,1,1,35.879,25,10.891,10.891,0,0,1,25,35.879Z" transform="translate(9 9)" fill="#272454"/>
  </g>
</svg>
