<svg xmlns="http://www.w3.org/2000/svg" xmlns:xlink="http://www.w3.org/1999/xlink" width="87.334" height="90.444" viewBox="0 0 87.334 90.444">
  <defs>
    <filter id="Path_2" x="0" y="7.777" width="87.334" height="82.667" filterUnits="userSpaceOnUse">
      <feOffset dx="1" dy="5" input="SourceAlpha"/>
      <feGaussianBlur stdDeviation="6" result="blur"/>
      <feFlood flood-opacity="0.161"/>
      <feComposite operator="in" in2="blur"/>
      <feComposite in="SourceGraphic"/>
    </filter>
    <filter id="Rectangle_5" x="28.222" y="13.222" width="30.444" height="21.111" filterUnits="userSpaceOnUse">
      <feOffset dy="3" input="SourceAlpha"/>
      <feGaussianBlur stdDeviation="3" result="blur-2"/>
      <feFlood flood-opacity="0.161"/>
      <feComposite operator="in" in2="blur-2"/>
      <feComposite in="SourceGraphic"/>
    </filter>
    <filter id="Rectangle_10" x="31.334" y="10.889" width="24.222" height="23.333" filterUnits="userSpaceOnUse">
      <feOffset dy="3" input="SourceAlpha"/>
      <feGaussianBlur stdDeviation="3" result="blur-3"/>
      <feFlood flood-opacity="0.161"/>
      <feComposite operator="in" in2="blur-3"/>
      <feComposite in="SourceGraphic"/>
    </filter>
    <filter id="Rectangle_11" x="33.667" y="5.444" width="19.556" height="24.222" filterUnits="userSpaceOnUse">
      <feOffset dy="3" input="SourceAlpha"/>
      <feGaussianBlur stdDeviation="3" result="blur-4"/>
      <feFlood flood-opacity="0.161"/>
      <feComposite operator="in" in2="blur-4"/>
      <feComposite in="SourceGraphic"/>
    </filter>
    <filter id="Ellipse_1" x="31.334" y="0" width="24.222" height="24.222" filterUnits="userSpaceOnUse">
      <feOffset dy="3" input="SourceAlpha"/>
      <feGaussianBlur stdDeviation="3" result="blur-5"/>
      <feFlood flood-opacity="0.161"/>
      <feComposite operator="in" in2="blur-5"/>
      <feComposite in="SourceGraphic"/>
    </filter>
  </defs>
  <g id="Group_14" data-name="Group 14" transform="translate(-2068.333 -1024.496)">
    <g id="Group_3" data-name="Group 3" transform="translate(1959 465.941)">
      <g transform="matrix(1, 0, 0, 1, 109.33, 558.56)" filter="url(#Path_2)">
        <path id="Path_2-2" data-name="Path 2" d="M177.667,601.889c0,12.887-10.284,24.111-24.889,24.111-7.472,0-14.635-2.6-19.445-7-4.591-4.2-7-10.817-7-17.111,0-12.887,11.062-22.556,25.667-22.556,6.187,0,12.151,1.527,16.333,4.667C174.025,588.273,177.667,594.461,177.667,601.889Z" transform="translate(-109.33 -558.56)" fill="#272454"/>
      </g>
      <rect id="Rectangle_4" data-name="Rectangle 4" width="5.444" height="12.444" rx="2.722" transform="translate(122.444 596.444)" fill="#c4c2c3"/>
      <g transform="matrix(1, 0, 0, 1, 109.33, 558.56)" filter="url(#Rectangle_5)">
        <rect id="Rectangle_5-2" data-name="Rectangle 5" width="3.111" height="12.444" rx="1.556" transform="translate(37.22 22.33) rotate(-90)" fill="#8b0037"/>
      </g>
      <path id="Path_8" data-name="Path 8" d="M8.556,0h0a8.556,8.556,0,0,1,8.556,8.556V24.111a8.556,8.556,0,0,1-8.556,8.556h0A8.556,8.556,0,0,1,0,24.111V8.556A8.556,8.556,0,0,1,8.556,0Z" transform="translate(136.444 611.222) rotate(-90)" fill="#e5e5e5"/>
      <rect id="Rectangle_7" data-name="Rectangle 7" width="7.778" height="9.333" rx="3.889" transform="translate(140.333 598)" fill="#8b0037"/>
      <path id="Path_4" data-name="Path 4" d="M3.889,0h0A3.889,3.889,0,0,1,7.778,3.889V5.444A3.889,3.889,0,0,1,3.889,9.333h0A3.889,3.889,0,0,1,0,5.444V3.889A3.889,3.889,0,0,1,3.889,0Z" transform="translate(157.444 598)" fill="#8b0037"/>
      <rect id="Rectangle_9" data-name="Rectangle 9" width="5.444" height="12.444" rx="2.722" transform="translate(176.111 596.444)" fill="#c4c2c3"/>
      <g transform="matrix(1, 0, 0, 1, 109.33, 558.56)" filter="url(#Rectangle_10)">
        <rect id="Rectangle_10-2" data-name="Rectangle 10" width="6.222" height="5.333" rx="2.667" transform="translate(40.33 16.89)" fill="#8b0037"/>
      </g>
      <g transform="matrix(1, 0, 0, 1, 109.33, 558.56)" filter="url(#Rectangle_11)">
        <rect id="Rectangle_11-2" data-name="Rectangle 11" width="1.556" height="6.222" transform="translate(42.67 11.44)" fill="#8b0037"/>
      </g>
      <g transform="matrix(1, 0, 0, 1, 109.33, 558.56)" filter="url(#Ellipse_1)">
        <circle id="Ellipse_1-2" data-name="Ellipse 1" cx="3.111" cy="3.111" r="3.111" transform="translate(40.33 6)" fill="#8b0037"/>
      </g>
    </g>
  </g>
</svg>
