<svg xmlns="http://www.w3.org/2000/svg" width="49" height="49" viewBox="0 0 49 49">
  <g id="Group_52" data-name="Group 52" transform="translate(-6350 -8172)">
    <g id="Ellipse_24" data-name="Ellipse 24" transform="translate(6350 8172)" fill="#39c379" stroke="#fff" stroke-width="5">
      <circle cx="24.5" cy="24.5" r="24.5" stroke="none"/>
      <circle cx="24.5" cy="24.5" r="22" fill="none"/>
    </g>
    <path id="thumbs-up" d="M3.729,8.033H.861A.861.861,0,0,0,0,8.893V17.5a.861.861,0,0,0,.861.861H3.729A.861.861,0,0,0,4.59,17.5V8.893A.861.861,0,0,0,3.729,8.033ZM2.3,16.926a.861.861,0,1,1,.861-.861A.861.861,0,0,1,2.3,16.926ZM13.77,2.921c0,1.521-.931,2.374-1.193,3.391h3.648A2.143,2.143,0,0,1,18.36,8.395a2.6,2.6,0,0,1-.7,1.764l0,0a3,3,0,0,1-.334,2.85,2.836,2.836,0,0,1-.587,2.681,1.9,1.9,0,0,1-.22,1.6c-.732,1.052-2.546,1.066-4.08,1.066h-.1a10.294,10.294,0,0,1-4.287-1.138,5.644,5.644,0,0,0-1.888-.58.43.43,0,0,1-.423-.43V8.546a.43.43,0,0,1,.128-.306c1.421-1.4,2.031-2.89,3.2-4.056a4.343,4.343,0,0,0,.911-2.112C10.131,1.409,10.465,0,11.188,0,12.049,0,13.77.287,13.77,2.921Z" transform="translate(6365.668 8187.34)" fill="#fff"/>
  </g>
</svg>
